<svg width="665" height="226" viewBox="0 0 665 226" fill="none" xmlns="http://www.w3.org/2000/svg">
<g clip-path="url(#clip0_2784_3948)">
<rect width="670" height="226" fill="black"/>
<g clip-path="url(#clip1_2784_3948)">
<path d="M247.854 135.147H244.326V121.428H247.854V135.147Z" fill="white"/>
<path d="M268.568 121.428V135.147H263.766L254.419 124.858V135.147H250.892V121.428H255.675L265.04 131.736V121.428H268.568Z" fill="white"/>
<path d="M274.729 130.425C274.729 131.876 275.905 132.544 280.376 132.544C284.082 132.544 285.196 132.134 285.196 131.056C285.196 129.916 284.412 129.72 279.966 129.506C273.988 129.23 271.618 128.293 271.618 125.213C271.618 122.132 274.692 121.231 279.831 121.231C284.97 121.231 288.142 122.524 288.142 125.917H284.614C284.614 124.41 283.108 124.037 279.439 124.037C275.972 124.037 275.146 124.367 275.146 125.39C275.146 126.413 275.966 126.646 279.966 126.878C285.374 127.172 288.724 127.466 288.724 130.933C288.724 134.596 285.257 135.343 280.18 135.343C274.558 135.343 271.201 134.381 271.201 130.425H274.729Z" fill="white"/>
<path d="M299.712 135.343C293.673 135.343 291.088 133.053 291.088 128.269V121.428H294.616V128.269C294.616 130.192 295.143 132.385 299.712 132.385C304.281 132.385 304.808 130.168 304.808 128.269V121.428H308.336V128.269C308.336 133.034 305.727 135.343 299.712 135.343Z" fill="white"/>
<path d="M324.4 131.074L326.93 135.153H322.777L320.56 131.49H314.876V135.153H311.349V121.434H322.128C325.246 121.434 327.383 123.412 327.383 126.468C327.383 128.704 326.244 130.345 324.407 131.074H324.4ZM314.87 128.526H321.142C322.202 128.526 323.849 128.526 323.849 126.468C323.849 124.41 322.202 124.392 321.142 124.392H314.87V128.526Z" fill="white"/>
<path d="M342.861 132.232H334.647L333.178 135.153H329.294L336.369 121.434H341.134L348.226 135.153H344.325L342.855 132.232H342.861ZM341.55 129.604L338.769 124.037L335.964 129.604H341.55Z" fill="white"/>
<path d="M368.18 121.428V135.147H363.379L354.032 124.858V135.147H350.504V121.428H355.288L364.653 131.736V121.428H368.18Z" fill="white"/>
<path d="M394.125 124.233V127.014H402.553V129.561H394.125V132.342H405.101V135.147H390.597V121.428H405.101V124.233H394.125Z" fill="white"/>
<path d="M379.438 132.385C375.873 132.385 374.342 131.092 374.342 128.269C374.342 125.445 375.849 124.19 379.438 124.19C382.151 124.19 383.798 124.937 384.301 126.799H387.939C387.412 123.148 384.68 121.231 379.438 121.231C373.399 121.231 370.814 123.718 370.814 128.269C370.814 132.819 373.399 135.343 379.438 135.343C384.662 135.343 387.394 133.42 387.939 129.775H384.295C383.78 131.625 382.12 132.385 379.444 132.385H379.438Z" fill="white"/>
<path d="M503.991 94.9503C503.709 94.9503 503.446 94.9013 503.207 94.8033C502.968 94.7053 502.766 94.5644 502.588 94.3929C502.417 94.2153 502.282 94.0132 502.184 93.7743C502.086 93.5355 502.043 93.2844 502.043 93.0026C502.043 92.7209 502.092 92.4636 502.19 92.2248C502.288 91.9859 502.429 91.7777 502.606 91.6062C502.784 91.4286 502.992 91.2938 503.225 91.1958C503.464 91.0978 503.715 91.0488 503.991 91.0488C504.266 91.0488 504.523 91.0978 504.762 91.2019C505.001 91.3061 505.203 91.4408 505.381 91.6246C505.559 91.8022 505.699 92.0104 505.791 92.2493C505.889 92.4881 505.938 92.7393 505.938 93.0026C505.938 93.266 505.889 93.5355 505.791 93.7743C505.693 94.0132 505.552 94.2153 505.381 94.3929C505.203 94.5706 505.001 94.7053 504.762 94.8033C504.523 94.9013 504.272 94.9503 503.991 94.9503ZM503.991 94.7421C504.236 94.7421 504.462 94.6992 504.67 94.6073C504.879 94.5154 505.062 94.3929 505.222 94.2337C505.381 94.0745 505.497 93.8907 505.589 93.6763C505.681 93.4681 505.724 93.2354 505.724 92.9965C505.724 92.7576 505.681 92.5371 505.595 92.3228C505.51 92.1145 505.387 91.9308 505.234 91.7715C505.081 91.6123 504.897 91.4837 504.683 91.3918C504.468 91.2999 504.242 91.2509 503.991 91.2509C503.74 91.2509 503.513 91.2938 503.299 91.3796C503.09 91.4653 502.907 91.5878 502.747 91.7471C502.588 91.9063 502.472 92.09 502.38 92.2983C502.294 92.5126 502.251 92.7393 502.251 92.9904C502.251 93.2415 502.294 93.4497 502.374 93.6641C502.459 93.8723 502.576 94.0622 502.735 94.2215C502.894 94.3807 503.072 94.5093 503.286 94.6012C503.495 94.6931 503.733 94.7359 503.985 94.7359L503.991 94.7421ZM503.305 94.1541V91.8573H503.966C504.217 91.8573 504.413 91.9124 504.548 92.0227C504.683 92.1329 504.75 92.2983 504.75 92.5188C504.75 92.6903 504.707 92.825 504.615 92.9291C504.524 93.0332 504.419 93.1067 504.297 93.1496L504.909 94.1602H504.597L504.04 93.2109H503.574V94.1602H503.305V94.1541ZM503.574 92.9843H503.948C504.107 92.9843 504.236 92.9475 504.34 92.8679C504.444 92.7883 504.493 92.678 504.493 92.5249C504.493 92.3718 504.444 92.2554 504.352 92.188C504.254 92.1207 504.125 92.0839 503.96 92.0839H503.58V92.9781L503.574 92.9843Z" fill="white"/>
<path d="M298.267 100.696H306.192H314.111V99.3852V98.0684H306.192H298.267V99.3852V100.696Z" fill="#FA6600"/>
<path d="M169.15 97.8044H155.351V91.0488H151.242V108.259H155.351V101.308H169.15V108.259H173.254V91.0488H169.15V97.8044Z" fill="white"/>
<path d="M186.055 91.0488L176.739 108.259H181.277L183.109 104.842H194.072L195.879 108.259H200.448L191.101 91.0488H186.055ZM192.351 101.614H184.799L188.584 94.5399L192.345 101.614H192.351Z" fill="white"/>
<path d="M222.944 97.1491C222.944 93.4987 220.359 91.0488 216.519 91.0488H203.535V108.259H207.644V103.225H214.878L217.928 108.259H222.754L219.349 102.716C221.639 101.828 222.95 99.8134 222.95 97.1491M207.644 94.5522H215.355C216.825 94.5522 218.834 94.5522 218.834 97.1491C218.834 99.746 216.819 99.7215 215.355 99.7215H207.644V94.5522Z" fill="white"/>
<path d="M232.003 91.0488H227.893V108.259H245.024V104.756H232.003V91.0488Z" fill="white"/>
<path d="M249.066 108.259H266.657V104.872H253.17V100.983H263.484V97.8044H253.17V94.4358H266.657V91.0488H249.066V108.259Z" fill="white"/>
<path d="M281.326 98.7109L274.668 91.0488H269.597L279.268 102.245V108.259H283.377V102.245L293.048 91.0488H287.953L281.326 98.7109Z" fill="white"/>
<path d="M334.262 91.0488H322.325V108.259H334.262C340.295 108.259 342.432 103.623 342.432 99.6541C342.432 95.6853 340.295 91.0488 334.262 91.0488ZM338.329 99.6174C338.329 103.935 336.283 104.781 332.755 104.781H326.441V94.4481H332.755C336.283 94.4481 338.329 95.2933 338.329 99.6112V99.6174Z" fill="white"/>
<path d="M376.945 104.493L370.275 91.0488H365.62L374.887 108.259H379.756L389.047 91.0488H384.393L376.945 104.493Z" fill="white"/>
<path d="M393.029 108.259H395.081H397.139V99.6541V91.0488H395.081H393.029V99.6541V108.259Z" fill="white"/>
<path d="M437.489 90.8164C432.607 90.8164 427.622 91.4105 427.622 95.7897C427.622 98.9623 429.22 100.763 437.642 101.198C443.221 101.51 444.134 101.78 444.134 103.133C444.134 104.285 443.142 104.995 438.211 104.995C432.815 104.995 431.401 104.162 431.198 102.705H427.07C427.193 105.761 428.791 108.492 437.972 108.492C443.301 108.492 448.237 107.825 448.237 102.992C448.237 98.5091 443.803 98.2396 437.66 97.8721C432.668 97.5414 431.725 97.2413 431.725 95.9857C431.725 94.8281 432.491 94.3136 437.017 94.3136C441.543 94.3136 443.136 94.8097 443.387 96.2919H447.509C447.27 92.611 443.987 90.8164 437.476 90.8164" fill="white"/>
<path d="M462.146 90.8164C455.226 90.8164 451.722 93.7808 451.722 99.6299C451.722 105.479 455.232 108.492 462.146 108.492C469.061 108.492 472.571 105.51 472.571 99.6299C472.571 93.7502 469.061 90.8164 462.146 90.8164ZM468.467 99.6299C468.467 103.305 466.575 104.879 462.153 104.879C457.731 104.879 455.838 103.36 455.838 99.6299C455.838 95.9 457.669 94.43 462.153 94.43C466.636 94.43 468.467 95.9367 468.467 99.6299Z" fill="white"/>
<path d="M494.063 91.0488L494.069 103.788L481.991 91.1101L481.936 91.0488H476.815V108.259H480.925V95.5689L492.948 108.198L493.003 108.259H498.179L498.172 91.0488H494.063Z" fill="white"/>
<path d="M415.109 91.0488H403.171V108.259H415.109C421.141 108.259 423.279 103.623 423.279 99.6541C423.279 95.6853 421.141 91.0488 415.109 91.0488ZM419.175 99.6174C419.175 103.935 417.13 104.781 413.602 104.781H407.287V94.4481H413.602C417.13 94.4481 419.175 95.2933 419.175 99.6112V99.6174Z" fill="white"/>
<path d="M353.205 91.0488L343.89 108.259H348.428L350.259 104.842H361.223L363.03 108.259H367.592L358.252 91.0488H353.205ZM359.502 101.614H351.95L355.735 94.5399L359.496 101.614H359.502Z" fill="white"/>
</g>
</g>
<defs>
<clipPath id="clip0_2784_3948">
<rect width="665" height="226" fill="white"/>
</clipPath>
<clipPath id="clip1_2784_3948">
<rect width="354.697" height="44.527" fill="white" transform="translate(151.242 90.8164)"/>
</clipPath>
</defs>
</svg>
