<svg width="104" height="423" viewBox="0 0 104 423" fill="none" xmlns="http://www.w3.org/2000/svg">
<rect width="104" height="423" fill="black"/>
<g clip-path="url(#clip0_2784_4122)">
<path d="M30.2275 217.933H29.2788V214.244H30.2275V217.933Z" fill="white"/>
<path d="M35.7977 214.244V217.933H34.5064L31.9931 215.166V217.933H31.0444V214.244H32.3307L34.849 217.016V214.244H35.7977Z" fill="white"/>
<path d="M37.4545 216.664C37.4545 217.054 37.7707 217.233 38.9731 217.233C39.9695 217.233 40.2692 217.123 40.2692 216.833C40.2692 216.527 40.0584 216.474 38.8627 216.416C37.2552 216.342 36.6179 216.09 36.6179 215.262C36.6179 214.434 37.4446 214.191 38.8265 214.191C40.2083 214.191 41.0614 214.539 41.0614 215.451H40.1128C40.1128 215.046 39.7076 214.946 38.7211 214.946C37.7889 214.946 37.5665 215.035 37.5665 215.31C37.5665 215.585 37.7872 215.647 38.8627 215.71C40.317 215.789 41.2179 215.868 41.2179 216.8C41.2179 217.785 40.2857 217.986 38.9204 217.986C37.4084 217.986 36.5059 217.727 36.5059 216.664H37.4545Z" fill="white"/>
<path d="M44.1725 217.986C42.5485 217.986 41.8535 217.37 41.8535 216.084V214.244H42.8022V216.084C42.8022 216.601 42.9438 217.191 44.1725 217.191C45.4011 217.191 45.5428 216.594 45.5428 216.084V214.244H46.4914V216.084C46.4914 217.365 45.7898 217.986 44.1725 217.986Z" fill="white"/>
<path d="M50.8115 216.838L51.4917 217.935H50.375L49.7788 216.95H48.2504V217.935H47.3018V214.246H50.2005C51.0388 214.246 51.6136 214.778 51.6136 215.6C51.6136 216.201 51.3072 216.642 50.8131 216.838H50.8115ZM48.2488 216.153H49.9353C50.2202 216.153 50.6633 216.153 50.6633 215.6C50.6633 215.047 50.2202 215.042 49.9353 215.042H48.2488V216.153Z" fill="white"/>
<path d="M55.7755 217.15H53.5669L53.1716 217.935H52.1274L54.0297 214.246H55.3111L57.2183 217.935H56.1692L55.7739 217.15H55.7755ZM55.4231 216.443L54.6753 214.946L53.921 216.443H55.4231Z" fill="white"/>
<path d="M62.5843 214.244V217.933H61.293L58.7797 215.166V217.933H57.8311V214.244H59.1174L61.6356 217.016V214.244H62.5843Z" fill="white"/>
<path d="M69.561 214.998V215.746H71.8272V216.431H69.561V217.179H72.5124V217.933H68.6123V214.244H72.5124V214.998H69.561Z" fill="white"/>
<path d="M65.6114 217.191C64.6529 217.191 64.2411 216.843 64.2411 216.084C64.2411 215.325 64.6463 214.987 65.6114 214.987C66.3411 214.987 66.7841 215.188 66.9192 215.689H67.8975C67.7558 214.707 67.0213 214.191 65.6114 214.191C63.9875 214.191 63.2925 214.86 63.2925 216.084C63.2925 217.308 63.9875 217.986 65.6114 217.986C67.0163 217.986 67.7509 217.469 67.8975 216.489H66.9175C66.7792 216.986 66.3328 217.191 65.6131 217.191H65.6114Z" fill="white"/>
<path d="M99.1048 207.124C99.029 207.124 98.9582 207.111 98.894 207.085C98.8297 207.058 98.7754 207.021 98.7276 206.974C98.6815 206.927 98.6453 206.872 98.6189 206.808C98.5926 206.744 98.5811 206.676 98.5811 206.601C98.5811 206.525 98.5942 206.456 98.6206 206.391C98.6469 206.327 98.6848 206.271 98.7326 206.225C98.7803 206.177 98.8363 206.141 98.8989 206.115C98.9632 206.088 99.0307 206.075 99.1048 206.075C99.1789 206.075 99.2481 206.088 99.3123 206.116C99.3766 206.144 99.4309 206.181 99.4787 206.23C99.5264 206.278 99.5643 206.334 99.589 206.398C99.6154 206.462 99.6285 206.53 99.6285 206.601C99.6285 206.671 99.6154 206.744 99.589 206.808C99.5627 206.872 99.5248 206.927 99.4787 206.974C99.4309 207.022 99.3766 207.058 99.3123 207.085C99.2481 207.111 99.1806 207.124 99.1048 207.124ZM99.1048 207.068C99.1707 207.068 99.2316 207.057 99.2876 207.032C99.3436 207.007 99.393 206.974 99.4358 206.932C99.4787 206.889 99.51 206.839 99.5347 206.782C99.5594 206.726 99.5709 206.663 99.5709 206.599C99.5709 206.535 99.5594 206.475 99.5363 206.418C99.5133 206.362 99.4803 206.312 99.4391 206.27C99.398 206.227 99.3486 206.192 99.2909 206.167C99.2333 206.143 99.1723 206.13 99.1048 206.13C99.0373 206.13 98.9763 206.141 98.9187 206.164C98.8627 206.187 98.8133 206.22 98.7705 206.263C98.7276 206.306 98.6963 206.355 98.6716 206.411C98.6486 206.469 98.637 206.53 98.637 206.597C98.637 206.665 98.6486 206.721 98.67 206.778C98.693 206.834 98.7243 206.886 98.7672 206.928C98.81 206.971 98.8577 207.006 98.9154 207.03C98.9714 207.055 99.0356 207.067 99.1031 207.067L99.1048 207.068ZM98.9203 206.91V206.293H99.0982C99.1657 206.293 99.2184 206.307 99.2547 206.337C99.2909 206.367 99.309 206.411 99.309 206.47C99.309 206.517 99.2975 206.553 99.2728 206.581C99.2481 206.609 99.2201 206.629 99.1871 206.64L99.3518 206.912H99.2678L99.118 206.657H98.9928V206.912H98.9203V206.91ZM98.9928 206.596H99.0933C99.1361 206.596 99.1707 206.586 99.1987 206.564C99.2267 206.543 99.2399 206.513 99.2399 206.472C99.2399 206.431 99.2267 206.4 99.202 206.382C99.1756 206.363 99.141 206.354 99.0966 206.354H98.9945V206.594L98.9928 206.596Z" fill="white"/>
<path d="M43.7839 208.669H45.9151H48.0447V208.317V207.963H45.9151H43.7839V208.317V208.669Z" fill="#FA6600"/>
<path d="M9.06361 207.892H5.35293V206.075H4.2478V210.703H5.35293V208.834H9.06361V210.703H10.1671V206.075H9.06361V207.892Z" fill="white"/>
<path d="M13.6093 206.075L11.1042 210.703H12.3247L12.8171 209.784H15.7652L16.2511 210.703H17.4798L14.9664 206.075H13.6093ZM15.3024 208.916H13.2717L14.2895 207.014L15.3008 208.916H15.3024Z" fill="white"/>
<path d="M23.5291 207.716C23.5291 206.734 22.8341 206.075 21.8014 206.075H18.3098V210.703H19.4149V209.349H21.36L22.1802 210.703H23.4781L22.5623 209.213C23.1783 208.974 23.5308 208.432 23.5308 207.716M19.4149 207.017H21.4885C21.8838 207.017 22.424 207.017 22.424 207.716C22.424 208.414 21.8821 208.407 21.4885 208.407H19.4149V207.017Z" fill="white"/>
<path d="M25.965 206.075H24.8599V210.703H29.4665V209.761H25.965V206.075Z" fill="white"/>
<path d="M30.5535 210.703H35.2836V209.792H31.657V208.747H34.4305V207.892H31.657V206.986H35.2836V206.075H30.5535V210.703Z" fill="white"/>
<path d="M39.2282 208.136L37.4379 206.075H36.0742L38.6748 209.086V210.703H39.78V209.086L42.3806 206.075H41.0103L39.2282 208.136Z" fill="white"/>
<path d="M53.4632 206.075H50.2532V210.703H53.4632C55.0855 210.703 55.6603 209.456 55.6603 208.389C55.6603 207.322 55.0855 206.075 53.4632 206.075ZM54.5568 208.379C54.5568 209.54 54.0067 209.768 53.058 209.768H51.36V206.989H53.058C54.0067 206.989 54.5568 207.217 54.5568 208.378V208.379Z" fill="white"/>
<path d="M64.941 209.69L63.1475 206.075H61.8958L64.3877 210.703H65.697L68.1955 206.075H66.9438L64.941 209.69Z" fill="white"/>
<path d="M69.2661 210.703H69.8179H70.3712V208.389V206.075H69.8179H69.2661V208.389V210.703Z" fill="white"/>
<path d="M81.2217 206.013C79.909 206.013 78.5684 206.172 78.5684 207.35C78.5684 208.203 78.9983 208.687 81.2629 208.804C82.7633 208.888 83.0087 208.961 83.0087 209.325C83.0087 209.634 82.7419 209.825 81.416 209.825C79.965 209.825 79.5846 209.601 79.5302 209.21H78.4202C78.4531 210.031 78.883 210.766 81.3518 210.766C82.7847 210.766 84.1122 210.586 84.1122 209.287C84.1122 208.081 82.9198 208.009 81.2678 207.91C79.9255 207.821 79.6719 207.74 79.6719 207.403C79.6719 207.091 79.8778 206.953 81.0949 206.953C82.312 206.953 82.7402 207.087 82.8078 207.485H83.9162C83.8519 206.495 82.9692 206.013 81.2184 206.013" fill="white"/>
<path d="M87.8525 206.013C85.9914 206.013 85.0493 206.81 85.0493 208.383C85.0493 209.956 85.993 210.766 87.8525 210.766C89.712 210.766 90.6557 209.964 90.6557 208.383C90.6557 206.802 89.712 206.013 87.8525 206.013ZM89.5522 208.383C89.5522 209.371 89.0433 209.794 87.8541 209.794C86.665 209.794 86.1561 209.386 86.1561 208.383C86.1561 207.38 86.6485 206.984 87.8541 206.984C89.0597 206.984 89.5522 207.39 89.5522 208.383Z" fill="white"/>
<path d="M96.435 206.075L96.4367 209.501L93.1888 206.092L93.174 206.075H91.7971V210.703H92.9023V207.291L96.1353 210.687L96.1501 210.703H97.5418L97.5402 206.075H96.435Z" fill="white"/>
<path d="M75.2036 206.075H71.9937V210.703H75.2036C76.8259 210.703 77.4007 209.456 77.4007 208.389C77.4007 207.322 76.8259 206.075 75.2036 206.075ZM76.2972 208.379C76.2972 209.54 75.7471 209.768 74.7985 209.768H73.1004V206.989H74.7985C75.7471 206.989 76.2972 207.217 76.2972 208.378V208.379Z" fill="white"/>
<path d="M58.5573 206.075L56.0522 210.703H57.2727L57.7651 209.784H60.7132L61.1991 210.703H62.4261L59.9144 206.075H58.5573ZM60.2504 208.916H58.2197L59.2375 207.014L60.2488 208.916H60.2504Z" fill="white"/>
</g>
<defs>
<clipPath id="clip0_2784_4122">
<rect width="95.3806" height="11.9736" fill="white" transform="translate(4.2478 206.013)"/>
</clipPath>
</defs>
</svg>
