<svg width="519" height="74" viewBox="0 0 519 74" fill="none" xmlns="http://www.w3.org/2000/svg">
<g clip-path="url(#clip0_2784_675)">
<rect width="519" height="74" fill="black"/>
<g clip-path="url(#clip1_2784_675)">
<path d="M210.559 50.881H208.404V42.5029H210.559V50.881Z" fill="white"/>
<path d="M223.208 42.5029V50.881H220.276L214.568 44.5975V50.881H212.414V42.5029H215.335L221.054 48.7977V42.5029H223.208Z" fill="white"/>
<path d="M226.971 47.9974C226.971 48.8838 227.689 49.2915 230.419 49.2915C232.682 49.2915 233.363 49.0409 233.363 48.3826C233.363 47.6869 232.884 47.5672 230.169 47.4363C226.518 47.268 225.071 46.6958 225.071 44.8144C225.071 42.9331 226.948 42.3833 230.086 42.3833C233.224 42.3833 235.162 43.1725 235.162 45.2446H233.007C233.007 44.3245 232.087 44.0963 229.847 44.0963C227.73 44.0963 227.225 44.2983 227.225 44.9229C227.225 45.5475 227.726 45.6897 230.169 45.8318C233.471 46.0113 235.517 46.1908 235.517 48.3078C235.517 50.5445 233.4 51.0008 230.3 51.0008C226.866 51.0008 224.816 50.4135 224.816 47.9974H226.971Z" fill="white"/>
<path d="M242.227 51.0007C238.539 51.0007 236.961 49.6019 236.961 46.6808V42.5029H239.115V46.6808C239.115 47.8552 239.437 49.1942 242.227 49.1942C245.017 49.1942 245.339 47.8402 245.339 46.6808V42.5029H247.493V46.6808C247.493 49.5906 245.9 51.0007 242.227 51.0007Z" fill="white"/>
<path d="M257.304 48.3939L258.849 50.8849H256.313L254.959 48.6483H251.488V50.8849H249.333V42.5068H255.916C257.82 42.5068 259.125 43.7149 259.125 45.5813C259.125 46.9465 258.43 47.9489 257.308 48.3939H257.304ZM251.484 46.838H255.314C255.961 46.838 256.967 46.838 256.967 45.5813C256.967 44.3246 255.961 44.3134 255.314 44.3134H251.484V46.838Z" fill="white"/>
<path d="M268.577 49.1008H263.561L262.664 50.8849H260.292L264.612 42.5068H267.522L271.853 50.8849H269.471L268.573 49.1008H268.577ZM267.777 47.4963L266.079 44.0964L264.366 47.4963H267.777Z" fill="white"/>
<path d="M284.039 42.5029V50.881H281.107L275.399 44.5975V50.881H273.245V42.5029H276.166L281.885 48.7977V42.5029H284.039Z" fill="white"/>
<path d="M299.883 44.216V45.914H305.029V47.4699H299.883V49.168H306.585V50.881H297.729V42.5029H306.585V44.216H299.883Z" fill="white"/>
<path d="M290.914 49.1942C288.737 49.1942 287.802 48.4051 287.802 46.6808C287.802 44.9566 288.722 44.1898 290.914 44.1898C292.571 44.1898 293.577 44.6461 293.883 45.7832H296.105C295.783 43.554 294.115 42.3833 290.914 42.3833C287.226 42.3833 285.647 43.9018 285.647 46.6808C285.647 49.4598 287.226 51.0008 290.914 51.0008C294.104 51.0008 295.772 49.8263 296.105 47.6009H293.88C293.566 48.7305 292.552 49.1942 290.917 49.1942H290.914Z" fill="white"/>
<path d="M366.975 26.3342C366.802 26.3342 366.642 26.3043 366.496 26.2444C366.35 26.1846 366.227 26.0985 366.118 25.9938C366.013 25.8854 365.931 25.7619 365.871 25.6161C365.811 25.4702 365.785 25.3168 365.785 25.1448C365.785 24.9727 365.815 24.8157 365.875 24.6698C365.935 24.5239 366.021 24.3967 366.129 24.292C366.238 24.1836 366.365 24.1013 366.507 24.0414C366.653 23.9816 366.806 23.9517 366.975 23.9517C367.143 23.9517 367.3 23.9816 367.446 24.0452C367.592 24.1087 367.715 24.191 367.824 24.3032C367.932 24.4117 368.018 24.5389 368.074 24.6847C368.134 24.8306 368.164 24.984 368.164 25.1448C368.164 25.3056 368.134 25.4702 368.074 25.6161C368.014 25.7619 367.928 25.8854 367.824 25.9938C367.715 26.1023 367.592 26.1846 367.446 26.2444C367.3 26.3043 367.147 26.3342 366.975 26.3342ZM366.975 26.207C367.124 26.207 367.263 26.1808 367.39 26.1247C367.517 26.0686 367.629 25.9938 367.726 25.8966C367.824 25.7993 367.895 25.6871 367.951 25.5562C368.007 25.429 368.033 25.2869 368.033 25.141C368.033 24.9952 368.007 24.8605 367.954 24.7296C367.902 24.6025 367.827 24.4903 367.734 24.393C367.64 24.2958 367.528 24.2172 367.397 24.1611C367.266 24.105 367.128 24.0751 366.975 24.0751C366.821 24.0751 366.683 24.1013 366.552 24.1536C366.425 24.206 366.313 24.2808 366.215 24.378C366.118 24.4753 366.047 24.5875 365.991 24.7147C365.939 24.8456 365.912 24.984 365.912 25.1373C365.912 25.2907 365.938 25.4178 365.987 25.5487C366.039 25.6759 366.111 25.7918 366.208 25.8891C366.305 25.9863 366.414 26.0649 366.544 26.121C366.672 26.1771 366.817 26.2033 366.971 26.2033L366.975 26.207ZM366.556 25.848V24.4454H366.96C367.113 24.4454 367.233 24.479 367.315 24.5464C367.397 24.6137 367.438 24.7147 367.438 24.8493C367.438 24.954 367.412 25.0363 367.356 25.0999C367.3 25.1635 367.236 25.2084 367.162 25.2346L367.536 25.8517H367.345L367.004 25.272H366.72V25.8517H366.556V25.848ZM366.72 25.1336H366.948C367.046 25.1336 367.124 25.1111 367.188 25.0625C367.251 25.0139 367.281 24.9466 367.281 24.8531C367.281 24.7595 367.251 24.6885 367.195 24.6473C367.135 24.6062 367.057 24.5838 366.956 24.5838H366.724V25.1298L366.72 25.1336Z" fill="white"/>
<path d="M241.345 29.8423H246.185H251.021V29.0419V28.2378H246.185H241.345V29.0419V29.8423Z" fill="#FA6600"/>
<path d="M162.497 28.0771H154.07V23.9517H151.561V34.4617H154.07V30.2165H162.497V34.4617H165.003V23.9517H162.497V28.0771Z" fill="white"/>
<path d="M172.82 23.9517L167.131 34.4617H169.902L171.021 32.3746H177.716L178.819 34.4617H181.609L175.902 23.9517H172.82ZM176.665 30.4035H172.053L174.364 26.0836L176.661 30.4035H176.665Z" fill="white"/>
<path d="M195.347 27.6769C195.347 25.4477 193.769 23.9517 191.424 23.9517H183.495V34.4617H186.004V31.3872H190.422L192.284 34.4617H195.231L193.152 31.0768C194.551 30.5344 195.351 29.3039 195.351 27.6769M186.004 26.0911H190.713C191.611 26.0911 192.838 26.0911 192.838 27.6769C192.838 29.2628 191.607 29.2478 190.713 29.2478H186.004V26.0911Z" fill="white"/>
<path d="M200.879 23.9517H198.369V34.4617H208.831V32.3223H200.879V23.9517Z" fill="white"/>
<path d="M211.299 34.4617H222.041V32.3933H213.805V30.0183H220.104V28.0771H213.805V26.02H222.041V23.9517H211.299V34.4617Z" fill="white"/>
<path d="M230.999 28.6307L226.933 23.9517H223.836L229.742 30.7888V34.4617H232.252V30.7888L238.158 23.9517H235.046L230.999 28.6307Z" fill="white"/>
<path d="M263.326 23.9517H256.036V34.4617H263.326C267.01 34.4617 268.315 31.6303 268.315 29.2067C268.315 26.783 267.01 23.9517 263.326 23.9517ZM265.809 29.1842C265.809 31.8211 264.56 32.3372 262.406 32.3372H258.55V26.0275H262.406C264.56 26.0275 265.809 26.5436 265.809 29.1805V29.1842Z" fill="white"/>
<path d="M289.391 32.1614L285.318 23.9517H282.476L288.135 34.4617H291.108L296.782 23.9517H293.939L289.391 32.1614Z" fill="white"/>
<path d="M299.213 34.4617H300.466H301.723V29.2067V23.9517H300.466H299.213V29.2067V34.4617Z" fill="white"/>
<path d="M326.364 23.8096C323.383 23.8096 320.338 24.1724 320.338 26.8466C320.338 28.7841 321.314 29.8837 326.457 30.1492C329.864 30.34 330.422 30.5046 330.422 31.3311C330.422 32.0343 329.816 32.4682 326.805 32.4682C323.51 32.4682 322.646 31.9595 322.522 31.0693H320.001C320.076 32.9357 321.052 34.6038 326.659 34.6038C329.913 34.6038 332.928 34.1962 332.928 31.2451C332.928 28.5073 330.22 28.3427 326.468 28.1183C323.42 27.9163 322.844 27.7331 322.844 26.9663C322.844 26.2594 323.312 25.9452 326.076 25.9452C328.84 25.9452 329.812 26.2482 329.965 27.1533H332.483C332.337 24.9055 330.332 23.8096 326.356 23.8096" fill="white"/>
<path d="M341.422 23.8096C337.195 23.8096 335.056 25.6198 335.056 29.1917C335.056 32.7637 337.199 34.6038 341.422 34.6038C345.644 34.6038 347.787 32.7824 347.787 29.1917C347.787 25.6011 345.644 23.8096 341.422 23.8096ZM345.281 29.1917C345.281 31.4359 344.126 32.3971 341.425 32.3971C338.725 32.3971 337.569 31.4695 337.569 29.1917C337.569 26.914 338.687 26.0163 341.425 26.0163C344.163 26.0163 345.281 26.9364 345.281 29.1917Z" fill="white"/>
<path d="M360.912 23.9517L360.916 31.7313L353.54 23.9891L353.506 23.9517H350.379V34.4617H352.889V26.7119L360.231 34.4243L360.265 34.4617H363.425L363.422 23.9517H360.912Z" fill="white"/>
<path d="M312.696 23.9517H305.407V34.4617H312.696C316.381 34.4617 317.686 31.6303 317.686 29.2067C317.686 26.783 316.381 23.9517 312.696 23.9517ZM315.18 29.1842C315.18 31.8211 313.931 32.3372 311.776 32.3372H307.92V26.0275H311.776C313.931 26.0275 315.18 26.5436 315.18 29.1805V29.1842Z" fill="white"/>
<path d="M274.894 23.9517L269.206 34.4617H271.977L273.095 32.3746H279.79L280.894 34.4617H283.68L277.976 23.9517H274.894ZM278.739 30.4035H274.128L276.439 26.0836L278.736 30.4035H278.739Z" fill="white"/>
</g>
</g>
<defs>
<clipPath id="clip0_2784_675">
<rect width="519" height="74" fill="white"/>
</clipPath>
<clipPath id="clip1_2784_675">
<rect width="216.604" height="27.1914" fill="white" transform="translate(151.561 23.8096)"/>
</clipPath>
</defs>
</svg>
