<svg width="135" height="404" viewBox="0 0 135 404" fill="none" xmlns="http://www.w3.org/2000/svg">
<rect width="135" height="404" fill="black"/>
<g clip-path="url(#clip0_2784_3605)">
<path d="M41.5112 209.355H40.3352V204.782H41.5112V209.355Z" fill="white"/>
<path d="M48.4157 204.782V209.355H46.8151L43.6996 205.926V209.355H42.5237V204.782H44.1182L47.2397 208.218V204.782H48.4157Z" fill="white"/>
<path d="M50.4697 207.782C50.4697 208.266 50.8616 208.488 52.352 208.488C53.5872 208.488 53.9587 208.351 53.9587 207.992C53.9587 207.612 53.6974 207.547 52.2152 207.475C50.2226 207.384 49.4325 207.071 49.4325 206.044C49.4325 205.017 50.4574 204.717 52.1703 204.717C53.8832 204.717 54.9407 205.148 54.9407 206.279H53.7648C53.7648 205.777 53.2625 205.652 52.0396 205.652C50.8841 205.652 50.6085 205.763 50.6085 206.104C50.6085 206.444 50.8821 206.522 52.2152 206.6C54.0179 206.698 55.1347 206.796 55.1347 207.951C55.1347 209.172 53.9791 209.421 52.2867 209.421C50.4125 209.421 49.2937 209.101 49.2937 207.782H50.4697Z" fill="white"/>
<path d="M58.7972 209.421C56.7842 209.421 55.9226 208.657 55.9226 207.063V204.782H57.0986V207.063C57.0986 207.704 57.2741 208.435 58.7972 208.435C60.3202 208.435 60.4958 207.696 60.4958 207.063V204.782H61.6717V207.063C61.6717 208.651 60.802 209.421 58.7972 209.421Z" fill="white"/>
<path d="M67.0269 207.998L67.8701 209.358H66.4859L65.7468 208.137H63.8522V209.358H62.6763V204.785H66.2695C67.3086 204.785 68.0211 205.444 68.0211 206.463C68.0211 207.208 67.6414 207.755 67.0289 207.998H67.0269ZM63.8502 207.149H65.9408C66.294 207.149 66.8431 207.149 66.8431 206.463C66.8431 205.777 66.294 205.771 65.9408 205.771H63.8502V207.149Z" fill="white"/>
<path d="M73.1801 208.384H70.4423L69.9523 209.358H68.658L71.016 204.785H72.6043L74.9685 209.358H73.668L73.178 208.384H73.1801ZM72.7432 207.508L71.8163 205.652L70.8812 207.508H72.7432Z" fill="white"/>
<path d="M81.62 204.782V209.355H80.0194L76.904 205.926V209.355H75.728V204.782H77.3225L80.4441 208.218V204.782H81.62Z" fill="white"/>
<path d="M90.2682 205.717V206.644H93.0775V207.493H90.2682V208.42H93.9268V209.355H89.0923V204.782H93.9268V205.717H90.2682Z" fill="white"/>
<path d="M85.3726 208.435C84.1844 208.435 83.674 208.004 83.674 207.063C83.674 206.122 84.1762 205.703 85.3726 205.703C86.277 205.703 86.8262 205.952 86.9936 206.573H88.2063C88.0307 205.356 87.1202 204.717 85.3726 204.717C83.3596 204.717 82.498 205.546 82.498 207.063C82.498 208.58 83.3596 209.421 85.3726 209.421C87.1141 209.421 88.0246 208.78 88.2063 207.565H86.9916C86.8201 208.182 86.2668 208.435 85.3746 208.435H85.3726Z" fill="white"/>
<path d="M126.89 195.957C126.796 195.957 126.708 195.94 126.629 195.908C126.549 195.875 126.482 195.828 126.423 195.771C126.366 195.712 126.321 195.644 126.288 195.565C126.255 195.485 126.241 195.401 126.241 195.308C126.241 195.214 126.257 195.128 126.29 195.048C126.323 194.969 126.37 194.899 126.429 194.842C126.488 194.783 126.557 194.738 126.635 194.705C126.715 194.673 126.798 194.656 126.89 194.656C126.982 194.656 127.068 194.673 127.147 194.707C127.227 194.742 127.294 194.787 127.354 194.848C127.413 194.907 127.46 194.977 127.49 195.056C127.523 195.136 127.539 195.22 127.539 195.308C127.539 195.395 127.523 195.485 127.49 195.565C127.458 195.644 127.411 195.712 127.354 195.771C127.294 195.83 127.227 195.875 127.147 195.908C127.068 195.94 126.984 195.957 126.89 195.957ZM126.89 195.887C126.972 195.887 127.047 195.873 127.117 195.842C127.186 195.812 127.247 195.771 127.301 195.718C127.354 195.665 127.392 195.604 127.423 195.532C127.454 195.463 127.468 195.385 127.468 195.305C127.468 195.226 127.454 195.152 127.425 195.081C127.397 195.011 127.356 194.95 127.305 194.897C127.254 194.844 127.192 194.801 127.121 194.771C127.049 194.74 126.974 194.724 126.89 194.724C126.806 194.724 126.731 194.738 126.659 194.766C126.59 194.795 126.529 194.836 126.476 194.889C126.423 194.942 126.384 195.003 126.353 195.073C126.325 195.144 126.31 195.22 126.31 195.303C126.31 195.387 126.325 195.457 126.351 195.528C126.38 195.597 126.419 195.661 126.472 195.714C126.525 195.767 126.584 195.81 126.655 195.84C126.725 195.871 126.804 195.885 126.888 195.885L126.89 195.887ZM126.662 195.691V194.926H126.882C126.966 194.926 127.031 194.944 127.076 194.981C127.121 195.018 127.143 195.073 127.143 195.146C127.143 195.203 127.129 195.248 127.098 195.283C127.068 195.318 127.033 195.342 126.992 195.357L127.196 195.693H127.092L126.907 195.377H126.751V195.693H126.662V195.691ZM126.751 195.301H126.876C126.929 195.301 126.972 195.289 127.007 195.263C127.041 195.236 127.058 195.199 127.058 195.148C127.058 195.097 127.041 195.058 127.011 195.036C126.978 195.014 126.935 195.001 126.88 195.001H126.753V195.299L126.751 195.301Z" fill="white"/>
<path d="M58.3154 197.872H60.9572H63.597V197.435V196.996H60.9572H58.3154V197.435V197.872Z" fill="#FA6600"/>
<path d="M15.2767 196.908H10.677V194.656H9.30713V200.393H10.677V198.076H15.2767V200.393H16.6446V194.656H15.2767V196.908Z" fill="white"/>
<path d="M20.9114 194.656L17.8062 200.393H19.319L19.9294 199.254H23.5838L24.1861 200.393H25.7091L22.5937 194.656H20.9114ZM23.0102 198.178H20.4929L21.7546 195.82L23.0081 198.178H23.0102Z" fill="white"/>
<path d="M33.2078 196.69C33.2078 195.473 32.3463 194.656 31.0662 194.656H26.738V200.393H28.1079V198.715H30.5191L31.5358 200.393H33.1445L32.0094 198.545C32.773 198.249 33.2099 197.578 33.2099 196.69M28.1079 195.824H30.6783C31.1683 195.824 31.8379 195.824 31.8379 196.69C31.8379 197.555 31.1662 197.547 30.6783 197.547H28.1079V195.824Z" fill="white"/>
<path d="M36.2273 194.656H34.8574V200.393H40.5677V199.225H36.2273V194.656Z" fill="white"/>
<path d="M41.9153 200.393H47.7787V199.264H43.2831V197.968H46.7212V196.908H43.2831V195.785H47.7787V194.656H41.9153V200.393Z" fill="white"/>
<path d="M52.6684 197.21L50.4492 194.656H48.7588L51.9825 198.388V200.393H53.3524V198.388L56.576 194.656H54.8774L52.6684 197.21Z" fill="white"/>
<path d="M70.3138 194.656H66.3347V200.393H70.3138C72.3247 200.393 73.0372 198.848 73.0372 197.525C73.0372 196.202 72.3247 194.656 70.3138 194.656ZM71.6694 197.512C71.6694 198.952 70.9875 199.233 69.8115 199.233H67.7067V195.789H69.8115C70.9875 195.789 71.6694 196.071 71.6694 197.51V197.512Z" fill="white"/>
<path d="M84.5415 199.138L82.3182 194.656H80.7666L83.8555 200.393H85.4786L88.5757 194.656H87.0241L84.5415 199.138Z" fill="white"/>
<path d="M89.9028 200.393H90.5868H91.2727V197.525V194.656H90.5868H89.9028V197.525V200.393Z" fill="white"/>
<path d="M104.723 194.579C103.096 194.579 101.434 194.777 101.434 196.236C101.434 197.294 101.967 197.894 104.774 198.039C106.634 198.143 106.938 198.233 106.938 198.684C106.938 199.068 106.607 199.305 104.964 199.305C103.165 199.305 102.693 199.027 102.626 198.541H101.25C101.291 199.56 101.824 200.471 104.884 200.471C106.66 200.471 108.306 200.248 108.306 198.637C108.306 197.143 106.828 197.053 104.78 196.931C103.116 196.82 102.802 196.72 102.802 196.302C102.802 195.916 103.057 195.744 104.566 195.744C106.074 195.744 106.605 195.91 106.689 196.404H108.063C107.983 195.177 106.889 194.579 104.719 194.579" fill="white"/>
<path d="M112.942 194.579C110.635 194.579 109.467 195.567 109.467 197.516C109.467 199.466 110.637 200.471 112.942 200.471C115.247 200.471 116.417 199.476 116.417 197.516C116.417 195.557 115.247 194.579 112.942 194.579ZM115.049 197.516C115.049 198.741 114.418 199.266 112.944 199.266C111.47 199.266 110.839 198.76 110.839 197.516C110.839 196.273 111.45 195.783 112.944 195.783C114.439 195.783 115.049 196.285 115.049 197.516Z" fill="white"/>
<path d="M123.581 194.656L123.583 198.903L119.557 194.677L119.538 194.656H117.832V200.393H119.201V196.163L123.209 200.373L123.227 200.393H124.953L124.951 194.656H123.581Z" fill="white"/>
<path d="M97.2627 194.656H93.2837V200.393H97.2627C99.2737 200.393 99.9862 198.848 99.9862 197.525C99.9862 196.202 99.2737 194.656 97.2627 194.656ZM98.6184 197.512C98.6184 198.952 97.9365 199.233 96.7605 199.233H94.6556V195.789H96.7605C97.9365 195.789 98.6184 196.071 98.6184 197.51V197.512Z" fill="white"/>
<path d="M76.6284 194.656L73.5232 200.393H75.036L75.6464 199.254H79.3009L79.9031 200.393H81.4241L78.3107 194.656H76.6284ZM78.7272 198.178H76.2099L77.4716 195.82L78.7251 198.178H78.7272Z" fill="white"/>
</g>
<defs>
<clipPath id="clip0_2784_3605">
<rect width="118.232" height="14.8423" fill="white" transform="translate(9.30713 194.579)"/>
</clipPath>
</defs>
</svg>
