<svg width="104" height="423" viewBox="0 0 104 423" fill="none" xmlns="http://www.w3.org/2000/svg">
<rect width="104" height="423" fill="black"/>
<g clip-path="url(#clip0_2784_2829)">
<path d="M30.2275 217.934H29.2788V214.245H30.2275V217.934Z" fill="white"/>
<path d="M35.7977 214.245V217.934H34.5064L31.9931 215.167V217.934H31.0444V214.245H32.3307L34.849 217.017V214.245H35.7977Z" fill="white"/>
<path d="M37.4545 216.665C37.4545 217.055 37.7707 217.234 38.9731 217.234C39.9695 217.234 40.2692 217.124 40.2692 216.834C40.2692 216.528 40.0584 216.475 38.8627 216.417C37.2552 216.343 36.6179 216.091 36.6179 215.263C36.6179 214.434 37.4446 214.192 38.8265 214.192C40.2083 214.192 41.0614 214.54 41.0614 215.452H40.1128C40.1128 215.047 39.7076 214.947 38.7211 214.947C37.7889 214.947 37.5665 215.036 37.5665 215.311C37.5665 215.586 37.7872 215.648 38.8627 215.711C40.317 215.79 41.2179 215.869 41.2179 216.801C41.2179 217.786 40.2857 217.987 38.9204 217.987C37.4084 217.987 36.5059 217.728 36.5059 216.665H37.4545Z" fill="white"/>
<path d="M44.1725 217.987C42.5485 217.987 41.8535 217.371 41.8535 216.084V214.245H42.8022V216.084C42.8022 216.601 42.9438 217.191 44.1725 217.191C45.4011 217.191 45.5428 216.595 45.5428 216.084V214.245H46.4914V216.084C46.4914 217.366 45.7898 217.987 44.1725 217.987Z" fill="white"/>
<path d="M50.8115 216.839L51.4917 217.936H50.375L49.7788 216.951H48.2504V217.936H47.3018V214.247H50.2005C51.0388 214.247 51.6136 214.779 51.6136 215.6C51.6136 216.202 51.3072 216.643 50.8131 216.839H50.8115ZM48.2488 216.154H49.9353C50.2202 216.154 50.6633 216.154 50.6633 215.6C50.6633 215.047 50.2202 215.042 49.9353 215.042H48.2488V216.154Z" fill="white"/>
<path d="M55.7755 217.15H53.5669L53.1716 217.936H52.1274L54.0297 214.247H55.3111L57.2183 217.936H56.1692L55.7739 217.15H55.7755ZM55.4231 216.444L54.6753 214.947L53.921 216.444H55.4231Z" fill="white"/>
<path d="M62.5843 214.245V217.934H61.293L58.7797 215.167V217.934H57.8311V214.245H59.1174L61.6356 217.017V214.245H62.5843Z" fill="white"/>
<path d="M69.561 214.999V215.747H71.8272V216.432H69.561V217.18H72.5124V217.934H68.6123V214.245H72.5124V214.999H69.561Z" fill="white"/>
<path d="M65.6114 217.192C64.6529 217.192 64.2411 216.844 64.2411 216.085C64.2411 215.326 64.6463 214.988 65.6114 214.988C66.3411 214.988 66.7841 215.189 66.9192 215.689H67.8975C67.7558 214.708 67.0213 214.192 65.6114 214.192C63.9875 214.192 63.2925 214.861 63.2925 216.085C63.2925 217.308 63.9875 217.987 65.6114 217.987C67.0163 217.987 67.7509 217.47 67.8975 216.49H66.9175C66.7792 216.987 66.3328 217.192 65.6131 217.192H65.6114Z" fill="white"/>
<path d="M99.1048 207.125C99.029 207.125 98.9582 207.112 98.894 207.085C98.8297 207.059 98.7754 207.021 98.7276 206.975C98.6815 206.927 98.6453 206.873 98.6189 206.809C98.5926 206.744 98.5811 206.677 98.5811 206.601C98.5811 206.525 98.5942 206.456 98.6206 206.392C98.6469 206.328 98.6848 206.272 98.7326 206.226C98.7803 206.178 98.8363 206.142 98.8989 206.115C98.9632 206.089 99.0307 206.076 99.1048 206.076C99.1789 206.076 99.2481 206.089 99.3123 206.117C99.3766 206.145 99.4309 206.181 99.4787 206.231C99.5264 206.278 99.5643 206.334 99.589 206.398C99.6154 206.463 99.6285 206.53 99.6285 206.601C99.6285 206.672 99.6154 206.744 99.589 206.809C99.5627 206.873 99.5248 206.927 99.4787 206.975C99.4309 207.023 99.3766 207.059 99.3123 207.085C99.2481 207.112 99.1806 207.125 99.1048 207.125ZM99.1048 207.069C99.1707 207.069 99.2316 207.057 99.2876 207.033C99.3436 207.008 99.393 206.975 99.4358 206.932C99.4787 206.889 99.51 206.84 99.5347 206.782C99.5594 206.726 99.5709 206.664 99.5709 206.599C99.5709 206.535 99.5594 206.476 99.5363 206.418C99.5133 206.362 99.4803 206.313 99.4391 206.27C99.398 206.227 99.3486 206.193 99.2909 206.168C99.2333 206.143 99.1723 206.13 99.1048 206.13C99.0373 206.13 98.9763 206.142 98.9187 206.165C98.8627 206.188 98.8133 206.221 98.7705 206.263C98.7276 206.306 98.6963 206.356 98.6716 206.412C98.6486 206.469 98.637 206.53 98.637 206.598C98.637 206.665 98.6486 206.721 98.67 206.779C98.693 206.835 98.7243 206.886 98.7672 206.929C98.81 206.972 98.8577 207.006 98.9154 207.031C98.9714 207.056 99.0356 207.067 99.1031 207.067L99.1048 207.069ZM98.9203 206.911V206.293H99.0982C99.1657 206.293 99.2184 206.308 99.2547 206.338C99.2909 206.367 99.309 206.412 99.309 206.471C99.309 206.517 99.2975 206.553 99.2728 206.581C99.2481 206.609 99.2201 206.629 99.1871 206.641L99.3518 206.912H99.2678L99.118 206.657H98.9928V206.912H98.9203V206.911ZM98.9928 206.596H99.0933C99.1361 206.596 99.1707 206.586 99.1987 206.565C99.2267 206.543 99.2399 206.514 99.2399 206.473C99.2399 206.431 99.2267 206.4 99.202 206.382C99.1756 206.364 99.141 206.354 99.0966 206.354H98.9945V206.594L98.9928 206.596Z" fill="white"/>
<path d="M43.7839 208.67H45.9151H48.0447V208.317V207.963H45.9151H43.7839V208.317V208.67Z" fill="#FA6600"/>
<path d="M9.06361 207.892H5.35293V206.076H4.2478V210.704H5.35293V208.834H9.06361V210.704H10.1671V206.076H9.06361V207.892Z" fill="white"/>
<path d="M13.6093 206.076L11.1042 210.704H12.3247L12.8171 209.785H15.7652L16.2511 210.704H17.4798L14.9664 206.076H13.6093ZM15.3024 208.917H13.2717L14.2895 207.014L15.3008 208.917H15.3024Z" fill="white"/>
<path d="M23.5291 207.716C23.5291 206.734 22.8341 206.076 21.8014 206.076H18.3098V210.704H19.4149V209.35H21.36L22.1802 210.704H23.4781L22.5623 209.213C23.1783 208.974 23.5308 208.433 23.5308 207.716M19.4149 207.018H21.4885C21.8838 207.018 22.424 207.018 22.424 207.716C22.424 208.414 21.8821 208.408 21.4885 208.408H19.4149V207.018Z" fill="white"/>
<path d="M25.965 206.076H24.8599V210.704H29.4665V209.762H25.965V206.076Z" fill="white"/>
<path d="M30.5535 210.704H35.2836V209.793H31.657V208.747H34.4305V207.892H31.657V206.986H35.2836V206.076H30.5535V210.704Z" fill="white"/>
<path d="M39.2282 208.136L37.4379 206.076H36.0742L38.6748 209.086V210.704H39.78V209.086L42.3806 206.076H41.0103L39.2282 208.136Z" fill="white"/>
<path d="M53.4632 206.076H50.2532V210.704H53.4632C55.0855 210.704 55.6603 209.457 55.6603 208.39C55.6603 207.322 55.0855 206.076 53.4632 206.076ZM54.5568 208.38C54.5568 209.541 54.0067 209.768 53.058 209.768H51.36V206.99H53.058C54.0067 206.99 54.5568 207.217 54.5568 208.378V208.38Z" fill="white"/>
<path d="M64.941 209.691L63.1475 206.076H61.8958L64.3877 210.704H65.697L68.1955 206.076H66.9438L64.941 209.691Z" fill="white"/>
<path d="M69.2661 210.704H69.8179H70.3712V208.39V206.076H69.8179H69.2661V208.39V210.704Z" fill="white"/>
<path d="M81.2217 206.013C79.909 206.013 78.5684 206.173 78.5684 207.351C78.5684 208.204 78.9983 208.688 81.2629 208.805C82.7633 208.889 83.0087 208.961 83.0087 209.325C83.0087 209.635 82.7419 209.826 81.416 209.826C79.965 209.826 79.5846 209.602 79.5302 209.21H78.4202C78.4531 210.032 78.883 210.766 81.3518 210.766C82.7847 210.766 84.1122 210.587 84.1122 209.287C84.1122 208.082 82.9198 208.009 81.2678 207.911C79.9255 207.822 79.6719 207.741 79.6719 207.403C79.6719 207.092 79.8778 206.954 81.0949 206.954C82.312 206.954 82.7402 207.087 82.8078 207.486H83.9162C83.8519 206.496 82.9692 206.013 81.2184 206.013" fill="white"/>
<path d="M87.8525 206.013C85.9914 206.013 85.0493 206.81 85.0493 208.383C85.0493 209.956 85.993 210.766 87.8525 210.766C89.712 210.766 90.6557 209.964 90.6557 208.383C90.6557 206.802 89.712 206.013 87.8525 206.013ZM89.5522 208.383C89.5522 209.371 89.0433 209.795 87.8541 209.795C86.665 209.795 86.1561 209.386 86.1561 208.383C86.1561 207.38 86.6485 206.985 87.8541 206.985C89.0597 206.985 89.5522 207.39 89.5522 208.383Z" fill="white"/>
<path d="M96.435 206.076L96.4367 209.501L93.1888 206.092L93.174 206.076H91.7971V210.704H92.9023V207.291L96.1353 210.687L96.1501 210.704H97.5418L97.5402 206.076H96.435Z" fill="white"/>
<path d="M75.2036 206.076H71.9937V210.704H75.2036C76.8259 210.704 77.4007 209.457 77.4007 208.39C77.4007 207.322 76.8259 206.076 75.2036 206.076ZM76.2972 208.38C76.2972 209.541 75.7471 209.768 74.7985 209.768H73.1004V206.99H74.7985C75.7471 206.99 76.2972 207.217 76.2972 208.378V208.38Z" fill="white"/>
<path d="M58.5573 206.076L56.0522 210.704H57.2727L57.7651 209.785H60.7132L61.1991 210.704H62.4261L59.9144 206.076H58.5573ZM60.2504 208.917H58.2197L59.2375 207.014L60.2488 208.917H60.2504Z" fill="white"/>
</g>
<defs>
<clipPath id="clip0_2784_2829">
<rect width="95.3806" height="11.9736" fill="white" transform="translate(4.2478 206.013)"/>
</clipPath>
</defs>
</svg>
