<svg width="201" height="26" viewBox="0 0 201 26" fill="none" xmlns="http://www.w3.org/2000/svg">
<g clip-path="url(#clip0_2784_366)">
<path d="M54.5466 25.5785H52.5547V17.8325H54.5466V25.5785Z" fill="black"/>
<path d="M66.2416 17.8325V25.5785H63.5305L58.2536 19.769V25.5785H56.2617V17.8325H58.9625L64.2497 23.6523V17.8325H66.2416Z" fill="black"/>
<path d="M69.7203 22.9121C69.7203 23.7317 70.3843 24.1086 72.9086 24.1086C75.0007 24.1086 75.6301 23.8769 75.6301 23.2683C75.6301 22.6251 75.1874 22.5145 72.6769 22.3934C69.3019 22.2378 67.9637 21.7088 67.9637 19.9694C67.9637 18.23 69.6996 17.7217 72.6008 17.7217C75.5021 17.7217 77.2934 18.4513 77.2934 20.3671H75.3015C75.3015 19.5164 74.4509 19.3054 72.3795 19.3054C70.4223 19.3054 69.9555 19.4922 69.9555 20.0697C69.9555 20.6472 70.4188 20.7786 72.6769 20.91C75.7303 21.0759 77.6219 21.2419 77.6219 23.1992C77.6219 25.2671 75.6646 25.6889 72.798 25.6889C69.6235 25.6889 67.7285 25.146 67.7285 22.9121H69.7203Z" fill="black"/>
<path d="M83.8255 25.6891C80.4159 25.6891 78.9567 24.3958 78.9567 21.6951V17.8325H80.9485V21.6951C80.9485 22.7809 81.2459 24.0189 83.8255 24.0189C86.4052 24.0189 86.7026 22.7671 86.7026 21.6951V17.8325H88.6944V21.6951C88.6944 24.3854 87.2213 25.6891 83.8255 25.6891Z" fill="black"/>
<path d="M97.7648 23.2788L99.1929 25.5819H96.8484L95.5966 23.514H92.3876V25.5819H90.3958V17.8359H96.4818C98.242 17.8359 99.4488 18.9529 99.4488 20.6784C99.4488 21.9406 98.8056 22.8673 97.7682 23.2788H97.7648ZM92.3841 21.8403H95.9251C96.5233 21.8403 97.4535 21.8403 97.4535 20.6784C97.4535 19.5165 96.5233 19.5062 95.9251 19.5062H92.3841V21.8403Z" fill="black"/>
<path d="M108.187 23.929H103.55L102.72 25.5785H100.528L104.522 17.8325H107.212L111.216 25.5785H109.014L108.184 23.929H108.187ZM107.447 22.449L105.877 19.3056L104.293 22.449H107.447Z" fill="black"/>
<path d="M122.483 17.8325V25.5785H119.772L114.495 19.769V25.5785H112.503V17.8325H115.204L120.491 23.6523V17.8325H122.483Z" fill="black"/>
<path d="M137.131 19.4163V20.9862H141.889V22.4248H137.131V23.9947H143.327V25.5785H135.139V17.8325H143.327V19.4163H137.131Z" fill="black"/>
<path d="M128.838 24.0187C126.826 24.0187 125.961 23.2891 125.961 21.6949C125.961 20.1008 126.812 19.3919 128.838 19.3919C130.37 19.3919 131.301 19.8138 131.584 20.865H133.638C133.341 18.804 131.798 17.7217 128.838 17.7217C125.429 17.7217 123.97 19.1256 123.97 21.6949C123.97 24.2642 125.429 25.6889 128.838 25.6889C131.788 25.6889 133.33 24.6031 133.638 22.5456H131.581C131.29 23.5899 130.353 24.0187 128.842 24.0187H128.838Z" fill="black"/>
<path d="M199.16 2.88341C199.001 2.88341 198.853 2.85575 198.718 2.80042C198.583 2.74509 198.469 2.66556 198.369 2.56874C198.272 2.46845 198.196 2.35434 198.14 2.21948C198.085 2.08461 198.061 1.94284 198.061 1.78377C198.061 1.6247 198.088 1.47946 198.144 1.3446C198.199 1.20974 198.279 1.09217 198.379 0.995343C198.479 0.89506 198.597 0.818984 198.728 0.763656C198.863 0.708328 199.005 0.680664 199.16 0.680664C199.316 0.680664 199.461 0.708328 199.596 0.767114C199.731 0.8259 199.845 0.901977 199.945 1.00572C200.046 1.106 200.125 1.22357 200.177 1.35843C200.232 1.4933 200.26 1.63507 200.26 1.78377C200.26 1.93246 200.232 2.08461 200.177 2.21948C200.122 2.35434 200.042 2.46845 199.945 2.56874C199.845 2.66902 199.731 2.74509 199.596 2.80042C199.461 2.85575 199.32 2.88341 199.16 2.88341ZM199.16 2.76584C199.299 2.76584 199.427 2.74164 199.544 2.68977C199.662 2.6379 199.766 2.56874 199.856 2.47883C199.945 2.38892 200.011 2.28518 200.063 2.16415C200.115 2.04658 200.139 1.91517 200.139 1.78031C200.139 1.64545 200.115 1.52096 200.066 1.39993C200.018 1.28236 199.949 1.17862 199.862 1.08871C199.776 0.998801 199.672 0.926183 199.551 0.874312C199.43 0.822442 199.302 0.794778 199.16 0.794778C199.019 0.794778 198.891 0.818984 198.77 0.867396C198.652 0.915809 198.548 0.984969 198.458 1.07488C198.369 1.16478 198.303 1.26853 198.251 1.3861C198.203 1.50713 198.178 1.63507 198.178 1.77685C198.178 1.91863 198.203 2.0362 198.248 2.15723C198.296 2.27481 198.362 2.382 198.452 2.47191C198.541 2.56182 198.642 2.63444 198.763 2.68631C198.88 2.73818 199.015 2.76238 199.157 2.76238L199.16 2.76584ZM198.773 2.43387V1.13366H199.147C199.288 1.13366 199.399 1.16478 199.475 1.22703C199.551 1.28927 199.589 1.38264 199.589 1.50713C199.589 1.60395 199.565 1.68003 199.513 1.73881C199.461 1.7976 199.403 1.8391 199.333 1.8633L199.679 2.43387H199.503L199.188 1.89788H198.925V2.43387H198.773ZM198.925 1.77339H199.136C199.226 1.77339 199.299 1.75265 199.358 1.70769C199.416 1.66274 199.444 1.60049 199.444 1.51404C199.444 1.42759 199.416 1.36189 199.364 1.32385C199.309 1.28582 199.237 1.26507 199.143 1.26507H198.929V1.76994L198.925 1.77339Z" fill="black"/>
<path d="M83.0095 6.12704H87.4841H91.9553V5.38703V4.64355H87.4841H83.0095V5.38703V6.12704Z" fill="#FA6600"/>
<path d="M10.1112 4.49485H2.32032V0.680664H0V10.3977H2.32032V6.47283H10.1112V10.3977H12.4281V0.680664H10.1112V4.49485Z" fill="black"/>
<path d="M19.6553 0.680664L14.3957 10.3977H16.9581L17.992 8.4681H24.1819L25.202 10.3977H27.7816L22.5047 0.680664H19.6553ZM23.2102 6.64573H18.9464L21.0835 2.65173L23.2067 6.64573H23.2102Z" fill="black"/>
<path d="M40.4829 4.12484C40.4829 2.06387 39.0236 0.680664 36.8555 0.680664H29.5245V10.3977H31.8448V7.55518H35.9287L37.6508 10.3977H40.3757L38.453 7.26817C39.7463 6.76676 40.4864 5.62907 40.4864 4.12484M31.8448 2.65864H36.1984C37.0284 2.65864 38.1626 2.65864 38.1626 4.12484C38.1626 5.59103 37.0249 5.5772 36.1984 5.5772H31.8448V2.65864Z" fill="black"/>
<path d="M45.5973 0.680664H43.277V10.3977H52.949V8.41968H45.5973V0.680664Z" fill="black"/>
<path d="M55.2313 10.3977H65.1627V8.48539H57.5481V6.28955H63.3714V4.49485H57.5481V2.59294H65.1627V0.680664H55.2313V10.3977Z" fill="black"/>
<path d="M73.4446 5.00663L69.6857 0.680664H66.8225L72.2827 7.0019V10.3977H74.603V7.0019L80.0632 0.680664H77.1862L73.4446 5.00663Z" fill="black"/>
<path d="M103.332 0.680664H96.5925V10.3977H103.332C106.738 10.3977 107.945 7.77995 107.945 5.53916C107.945 3.29838 106.738 0.680664 103.332 0.680664ZM105.628 5.51842C105.628 7.95631 104.473 8.43352 102.481 8.43352H98.9162V2.59986H102.481C104.473 2.59986 105.628 3.07706 105.628 5.51496V5.51842Z" fill="black"/>
<path d="M127.431 8.27099L123.665 0.680664H121.037L126.269 10.3977H129.018L134.264 0.680664H131.636L127.431 8.27099Z" fill="black"/>
<path d="M136.512 10.3977H137.67H138.832V5.53916V0.680664H137.67H136.512V5.53916V10.3977Z" fill="black"/>
<path d="M161.613 0.549316C158.857 0.549316 156.043 0.884743 156.043 3.35722C156.043 5.14847 156.945 6.16512 161.7 6.41064C164.85 6.587 165.365 6.73915 165.365 7.50337C165.365 8.15347 164.805 8.5546 162.021 8.5546C158.975 8.5546 158.176 8.08431 158.062 7.26131H155.731C155.801 8.98685 156.703 10.5291 161.887 10.5291C164.895 10.5291 167.682 10.1522 167.682 7.42383C167.682 4.89257 165.179 4.74042 161.71 4.53294C158.892 4.34621 158.359 4.17677 158.359 3.46787C158.359 2.81431 158.792 2.52384 161.347 2.52384C163.903 2.52384 164.802 2.80394 164.944 3.64077H167.271C167.136 1.56251 165.282 0.549316 161.607 0.549316" fill="black"/>
<path d="M175.535 0.549316C171.628 0.549316 169.65 2.22299 169.65 5.52539C169.65 8.82779 171.631 10.5291 175.535 10.5291C179.439 10.5291 181.421 8.84508 181.421 5.52539C181.421 2.2057 179.439 0.549316 175.535 0.549316ZM179.104 5.52539C179.104 7.60019 178.036 8.4889 175.539 8.4889C173.042 8.4889 171.974 7.63132 171.974 5.52539C171.974 3.41946 173.008 2.58954 175.539 2.58954C178.07 2.58954 179.104 3.44021 179.104 5.52539Z" fill="black"/>
<path d="M193.555 0.680664L193.559 7.87332L186.739 0.715244L186.708 0.680664H183.817V10.3977H186.138V3.23267L192.926 10.3631L192.957 10.3977H195.879L195.875 0.680664H193.555Z" fill="black"/>
<path d="M148.978 0.680664H142.238V10.3977H148.978C152.384 10.3977 153.591 7.77995 153.591 5.53916C153.591 3.29838 152.384 0.680664 148.978 0.680664ZM151.274 5.51842C151.274 7.95631 150.119 8.43352 148.127 8.43352H144.562V2.59986H148.127C150.119 2.59986 151.274 3.07706 151.274 5.51496V5.51842Z" fill="black"/>
<path d="M114.028 0.680664L108.768 10.3977H111.331L112.364 8.4681H118.554L119.574 10.3977H122.151L116.877 0.680664H114.028ZM117.583 6.64573H113.319L115.456 2.65173L117.579 6.64573H117.583Z" fill="black"/>
</g>
<defs>
<clipPath id="clip0_2784_366">
<rect width="200.26" height="25.1397" fill="white" transform="translate(0 0.549316)"/>
</clipPath>
</defs>
</svg>
